<svg version="1.0" xmlns="http://www.w3.org/2000/svg" viewBox="0 0 375 375"><path d="M62 68.1c0 1.1.4 1.8 1 1.4.5-.3.7-1.2.3-2-.7-2.1-1.3-1.9-1.3.6zM173.5 78c-12.2.6-13.4.8-19.5 3.9-13.6 7-25.3 23.6-31 43.6-.7 2.3-1 5.2-.7 6.5l.4 2.5.9-2.5c2.9-9.1 21.2-38.1 27.1-42.9 2.1-1.7 4.1-3.1 4.5-3.1.5 0-1.6 3.3-4.7 7.2-7.4 9.8-10 15.3-14.9 31.8-1.5 5.1-2.3 9.7-2 11.5 1.1 6 1.6 12.6 1 14.8-.3 1.3-1.8 2.7-3.5 3.3-2.4.9-3 1.9-3.7 5.5-1.1 6.2-.5 14 1.2 16.6.8 1.4 2.5 2.3 3.9 2.3 2.8 0 4.1-1.6 2.6-3.4-.8-.9-.7-1.8.2-3 1.2-1.6 1.5-1.2 2.5 3.5.6 3 1.4 9.9 1.7 15.4.3 5.5 1.3 16 2.2 23.3.8 7.3 1.3 13.6 1 13.9-.3.3-2.1 0-3.9-.5-1.8-.6-4.5-1.3-6-1.6-2.4-.5-2.8-1.1-2.8-4 0-4.9-6.6-13-17.2-21.2-14.1-11-30.3-14.5-47-10.3-3.5.9-3.8 1.3-3.8 4.5 0 2.7.4 3.5 1.4 3.1.8-.3 4.1-1.1 7.4-1.7 5.1-1 7.3-1 13.1.3 16.7 3.8 35.2 18 33.2 25.5-.6 2.1-1.4 2.8-3.7 2.9-6.4.5-20 2.6-22.1 3.4-6 2.3-8.1 9.3-4.2 14.3 1.2 1.5 2 2.9 1.8 3.1-.2.1-3.1 1.9-6.4 3.8-3.3 2-9.1 6-13 9-6.9 5.3-7 5.4-7.3 10.5-.2 2.9.1 5.2.5 5.2.5 0 3.3-2.5 6.3-5.6 6.2-6.2 9.8-8.8 8.2-5.7-.6 1-2.4 3.5-4.1 5.7-1.7 2.1-3.1 4.4-3.1 5.1 0 .7-.6 1.8-1.3 2.4-.8.6-2.6 4.2-4.1 8-2.4 6.1-2.6 7.9-2.4 17.2.3 9 .5 10.4 2.1 10.7 1.5.3 1.7-.6 1.7-8.5 0-4.9.7-11.6 1.5-14.8 3.6-13.8 15.1-31.6 24.7-38.1 4-2.7 4.9-2.9 13.3-2.7 8.1.1 8.6 0 5.3-1-6.2-2-5.4-2.7 3-2.7 4.5 0 8.2-.4 8.2-.9 0-3-9.8-4.3-19.2-2.5-6.9 1.3-8.1 1.3-10.8-.1-3.1-1.6-5-5.9-3.2-7.7 1.8-1.8 8.7-2.9 22.7-3.4 13.1-.5 14.5-.4 22.1 2 9.8 3.1 12.7 5.3 15.4 11.4 1.2 2.6 3.2 5.9 4.6 7.3 2.3 2.4 2.5 3.4 2.5 12 .1 9-.4 11.6-4.4 22.3-2.3 6.1-5.9 9.9-18 18.8l-11.2 8.3 9.9.3 9.9.3 3.9-3.8c7.9-7.7 11.4-14.9 14.9-30.2 1.4-6.3.7-14.6-1.6-19.1-.9-1.7-1.4-3.4-1.1-3.7.3-.3 2.5.1 4.8 1 2.4.9 5.6 1.8 7.1 1.9 1.8.2 2.7.8 2.7 1.9 0 3.1 2.9 3 5.2-.1 3-4.1 5.6-4.1 3.1 0-.9 1.7-2.3 3-3.1 3-1.5 0-11.3 3.9-12.6 5.1-1.4 1.3 17.7.3 20.1-1 4.1-2.1 4.7-1.1 1.4 2.3-1.9 1.9-4.8 4-6.5 4.7-1.7.8-3.5 1.7-4.1 2.1-.5.5-3.1 2.2-5.7 3.8-6.3 3.9-11.4 14.2-12.2 24.7l-.6 7.3h3.5c1.9 0 3.5-.3 3.6-.8 0-.4.4-5.5.8-11.4.9-12.9 3-16.7 10.5-18.8 4.9-1.3 5.9-1.3 20.6 1.9 5.2 1.1 11.6 2.1 14.2 2.1 4.2 0 5-.4 7.2-3.3 2.9-3.8 3.3-7.2 1.2-9.6-1.9-2.2-5.6-8.9-5.6-10.2 0-.6-1-2.4-2.1-4.1-1.9-2.6-2.3-2.8-3.6-1.5-1.3 1.3-1.2 2 .7 5.6 1.1 2.3 2.4 6.4 2.7 9.1.5 4.3.3 4.9-1.7 5.5-1.3.4-7.8.4-14.6 0l-12.4-.7 3.8-2.5c2-1.4 5.8-4.5 8.3-6.8 2.5-2.3 5.6-4.6 6.8-5 1.7-.5 2-1 1.1-2-.8-.9-.8-1.5-.1-2 .6-.3 3.4-4.5 6.2-9.3 2.8-4.8 6.4-9.7 8-11 3.2-2.6 3.9-4.5 1.2-3.5-1.2.5-1.5.2-1-.8 6-14.4 7.7-18.8 7.7-20.6 0-1.6.5-2 2-1.6 2.8.7 7.7-4.6 11.9-13.3 4.2-8.4 4.6-13.4 1.4-14.9-3.1-1.3-2.9-3.1.5-5 6.5-3.6 8.1-5.7 9-12.4.8-5.6.6-7.2-1.4-12.9-1.3-3.6-2.4-7.8-2.4-9.4 0-1.5-.4-3.6-.9-4.6-.5-.9-2.3-4.8-4-8.5-1.7-3.8-4.7-8.9-6.6-11.4-2.5-3.3-3.3-5.2-2.9-6.8.7-3-1.7-4.7-12.7-8.5-9-3.2-12.9-6.1-12.9-9.6 0-4.1-6.7-8.8-16.2-11.4-5.3-1.4-6.3-3-2-3 1.5 0 3.4-.5 4.2-1 2.4-1.5-.8-1.7-18.5-1zm9.9 11c3.6 1.1 6.8 2.4 7 2.9.3.5-3.6 1.1-8.7 1.4-10.9.6-17.3 2.4-24.4 7.1-2.9 1.9-5.3 3.3-5.3 3 0-1.8 8.3-11.3 11.9-13.5 5.5-3.5 10.2-3.7 19.5-.9zm8.5 9.4c-.2.2-5.1 2.8-10.9 5.7-5.8 2.9-13.3 7.2-16.7 9.6-5.1 3.4-6 3.8-4.7 1.8.9-1.3 4-3.8 7-5.5 3-1.7 5.9-4.1 6.3-5.3 1.2-3.2 2.9-4.4 8.1-5.5 4.5-1 11.7-1.5 10.9-.8zm3.7 7.4c-.3.5-1.6 1.2-2.8 1.5-2.2.6-2.2.6.2-1.3 2.5-1.9 3.7-2 2.6-.2zm16.2 7c.6 1.8-1.5 1.4-2.2-.4-.4-1-.1-1.4.6-1.2.6.2 1.4 1 1.6 1.6zm12.5 1.2c3.1 2.5 7.5 10.1 8.6 15.2 1 4.4 0 5-1.8 1.2-.6-1.5-3.4-6-6.1-10.1-2.8-4-5-7.6-5-7.8 0-1.1 1.9-.4 4.3 1.5zm-22.1 4.8c1.6 2.6 4.4 6.9 6.4 9.7 8.5 12 9.4 12.7 13.4 10.5 1.5-.8 1.7-1.6 1-4.6-.8-3.4-.7-3.5 1-1.9 2.3 2.1 3.7 9.9 4.9 27l1 14-3 8.5c-1.7 4.7-5.4 15.2-8.4 23.5-2.9 8.2-5.6 15.8-6 16.7-.5 1.3-1.9 1.8-4.9 1.8-3.8 0-4.4-.3-5.8-3.4-2.8-5.7-8-10.8-14.3-13.8-6.3-3-9-3.4-10-1.8-.3.5-1.6 1-2.8 1-2 0-2-.1-.2-1.3 5-3.7-5.8-5.1-13.3-1.7l-4.3 1.9-.9-2.5c-.6-1.4-1.3-3.6-1.6-4.9-.9-3.6-2.4-3.1-2.5.7-.1 2.7-.3 2.3-1-1.7-.5-2.8-1-13.4-1.1-23.6l-.3-18.7 4.5-5.6c5-6.3 8.6-7.7 14.8-5.8 4.6 1.4 13.1 8.8 15.6 13.5l1.9 3.6-2.7 6.3c-1.4 3.5-3.3 9.7-4.1 13.8-1.2 5.9-2.2 8-4.5 10.2-3.5 3.1-3.8 5.8-1 8.3 2.4 2.2 2.3 2.2 3.9-3.5 3.7-13 9.8-28.8 12.8-33.1 3.3-4.8 4.2-7.9 2.3-7.9-.5 0-.7-.6-.4-1.3.7-1.9-7.8-9.4-13.9-12.3-3.4-1.6-7-2.4-10.5-2.4h-5.4l3.2-3.9c1.7-2.2 5.3-5.6 8-7.6 5.4-4 21.7-12.4 24-12.5.8 0 2.7 2.2 4.2 4.8zm-33.2 1c0 .4-1.1 1.4-2.5 2.3-3.9 2.3-14.5 13-14.5 14.5 0 .8-.4 1.4-1 1.4-1.5 0-1.2-2.4 1.1-8.5 1.6-4.4 2.6-5.6 4.7-6 1.5-.4 4.7-1.4 7.2-2.5 2.5-1 4.6-1.8 4.8-1.9.1-.1.2.2.2.7zm-36.3 51.4c-.3.7-.5.2-.5-1.2s.2-1.9.5-1.3c.2.7.2 1.9 0 2.5zm43.4 23.4c-.5 1.6-1 2.1-1 1.2-.1-1.8 1-5.1 1.5-4.5.2.1-.1 1.6-.5 3.3zm-23.4 13.6c-.3.7-.5.2-.5-1.2s.2-1.9.5-1.3c.2.7.2 1.9 0 2.5zm33 2c5.8 4.5 13.3 12.4 13.3 14.1 0 .6-1.5-.3-3.3-2.1-1.8-1.8-3.8-3.2-4.3-3.2-.6 0-3.3-2.4-6-5.3-8.4-8.9-8.3-10.2.3-3.5zm-15.7-1.8c0 .3-.4.8-1 1.1-.5.3-1 .1-1-.4 0-.6.5-1.1 1-1.1.6 0 1 .2 1 .4zm4.7 2.2c-.3.3-1.2.4-1.9.1-.8-.3-.5-.6.6-.6 1.1-.1 1.7.2 1.3.5zm-14.1 5.6c-.3 2.3.2 3.9 1.4 5.3 1.8 1.9 1.8 2.4.5 6-.8 2.2-1.4 4.8-1.5 5.7 0 1-.4 1.8-.9 1.8-1.6 0-2.4-2.1-1.2-3.3.6-.6 1.1-2.1 1.1-3.3 0-1.3.5-2.6 1-2.9 1.8-1.1 1-2.5-1.5-2.5-2.8 0-3.2-1.7-1.4-6.9 1.4-4.1 3-4 2.5.1zm22.1-1.5c.2.6-.7.8-2.3.5-1.9-.3-2.2-.7-1.2-1.3 1.5-1 3-.7 3.5.8zm-8.4 2.2c1.1 1.1-6.7 2.6-8.3 1.6-.8-.5-.7-1.1.1-2.2 1.3-1.5 6.4-1.2 8.2.6zm-7.3 10.2c0 .5-.4.9-1 .9-.5 0-1-.7-1-1.6 0-.8.5-1.2 1-.9.6.3 1 1 1 1.6zm18 .4c3 .9 5.9 2.1 6.5 2.6.5.5 1.7.9 2.6.9 3 0 3.1 1.9.3 5.5-1.5 2-2.4 3.8-2.1 4.2.8.7-2 6.2-4.6 9-2 2.3-5.7 3.1-5.7 1.4 0-2.1 3.4-8.8 5.6-11.2l2.5-2.6-3.3-.7c-2.5-.5-3.5-.3-4.3 1-.5 1-2.2 3.1-3.7 4.8l-2.7 3.1-.1-3c0-2.1 1-4 3.4-6.3 3.1-2.9 3.8-3.2 7.5-2.6 6.2 1 5-.9-2.9-4.5-3.8-1.8-7-3.5-7-3.8 0-.3.6-.3 1.3-.1.6.3 3.7 1.3 6.7 2.3zm14.1.5c1.7 0 1.8.3.7 2-1.6 2.5-1.9 2.5-4.2-.7-1.8-2.4-1.8-2.6-.2-2 1 .4 2.6.7 3.7.7zm-24.6 2c.3.5-.3 1-1.5 1s-1.8-.5-1.5-1c.3-.6 1-1 1.5-1s1.2.4 1.5 1zm34.4 1.2c-1.4 2.7-11 12.8-12.2 12.8-1.7 0 1.9-4.7 7.2-9.7 3.1-2.9 5.7-5.2 5.9-5.3.1 0-.3 1-.9 2.2zm-29.9.7c0 .5-.7 1.1-1.4 1.4-1 .4-1.3.1-.9-.9.6-1.5 2.3-1.9 2.3-.5zm-10.1 8.1c-2.6 10-2.6 10.1-2.7 5.5 0-3.4 3.6-14.1 4.4-13.2.2.1-.6 3.6-1.7 7.7zm21.7 15.8c-1.8 1.6-1.8 1.6-.6-.6.6-1.3 1.4-2.1 1.8-1.8.3.4-.2 1.4-1.2 2.4zm4.4 4.7c-.7.9-1.5 1.3-1.8 1-.3-.2.1-1.1.8-2 .7-.9 1.5-1.3 1.8-1 .3.2-.1 1.1-.8 2z"/><path d="M163.1 149.4c-2.5.6-4.6 1.7-4.9 2.4-.2.7.2 1 1.2.6 2.2-.8 2 .2-.5 3.8-2.2 3-2.2 3-.2 5.6 3.4 4.6 10.2 5.4 14.8 1.7 1.9-1.6 1.9-1.6-1.3-1.1-3.5.6-8.3-.1-8.1-1.3 0-.3 1.5-1.8 3.4-3.4 3.3-2.8 6.5-2.8 6.5-.1 0 2.3 2.8 2.8 5.5 1 3.3-2.2 3.2-2.9-1.2-5.9-5.4-3.6-9.9-4.6-15.2-3.3zm40.7 10.3c-3.2.8-1.9 2.3 2 2.3 3 0 4.7.9 9.1 4.7 2.9 2.6 6 6.2 6.8 8 1.1 2.9 1.6 3.2 3.3 2.3 2.9-1.5 3.2-2.7 1.6-5.7-1.6-3.2-8.1-9.5-11.3-11.2-2.1-1.1-8.1-1.3-11.5-.4z"/><path d="M200 164.2c-2.1.8-2.2 1.2-1.6 7.1 1 8.1 2.5 9.7 9 9.7 2.8 0 6.6.4 8.4.9 2.5.8 3.2.7 2.9-.2-.3-1.1-2.2-1.8-9.1-3.2l-2.9-.6 2.4-2.5c2.2-2.4 2.3-2.4 4.3-.6 2.1 1.9 5.6 1.9 5.6.1 0-.6-1.9-3.1-4.3-5.6-4.6-4.8-10.2-6.8-14.7-5.1zm-14 39.2c1.9 1.3 3.9 2.2 4.3 1.9.5-.3-.8-1.3-2.7-2.4-5-2.6-5.7-2.4-1.6.5zm36 82.9c0 .4.7 2.4 1.6 4.5.9 2 2.2 5.7 2.9 8.1.8 2.4 2.9 6.6 4.7 9.3l3.3 4.8h9.8c5.3 0 9.7-.2 9.7-.4 0-.3-2.4-2.1-5.2-4-6.2-4.1-10.6-8.2-16.8-15.4-4.2-4.9-4.5-5.1-5.1-3-.5 2.2-.6 2.1-2.7-1.2-1.2-1.9-2.2-3.1-2.2-2.7z"/></svg>